<svg aria-hidden="true" style="position: absolute; width: 0; height: 0; overflow: hidden;" version="1.1" xmlns="http://www.w3.org/2000/svg" xmlns:xlink="http://www.w3.org/1999/xlink">
<defs>

<symbol id="facebook" viewBox="0 0 32 32">
    <path d="M23.999 0.007l-4.15-0.007c-4.662 0-7.675 3.091-7.675 7.875v3.631h-4.172c-0.361 0-0.652 0.292-0.652 0.653v5.261c0 0.361 0.292 0.652 0.652 0.652h4.172v13.275c0 0.361 0.292 0.653 0.652 0.653h5.444c0.361 0 0.652-0.292 0.652-0.652v-13.275h4.878c0.361 0 0.652-0.292 0.652-0.652l0.002-5.261c0-0.173-0.069-0.339-0.191-0.461s-0.289-0.191-0.462-0.191h-4.88v-3.078c0-1.479 0.353-2.23 2.28-2.23l2.795-0.001c0.36 0 0.652-0.292 0.652-0.652v-4.885c0-0.36-0.292-0.652-0.651-0.652z"></path>
</symbol>

<symbol id="telegram" viewBox="0 0 32 32">
    <path d="M0.565 15.428l7.373 2.752 2.854 9.178c0.183 0.588 0.901 0.805 1.379 0.415l4.11-3.351c0.431-0.351 1.044-0.369 1.495-0.042l7.413 5.382c0.51 0.371 1.233 0.091 1.361-0.525l5.43-26.122c0.14-0.674-0.522-1.236-1.164-0.988l-30.261 11.674c-0.747 0.288-0.74 1.345 0.009 1.626zM10.333 16.715l14.411-8.875c0.259-0.159 0.525 0.191 0.303 0.397l-11.893 11.055c-0.418 0.389-0.688 0.91-0.764 1.475l-0.405 3.002c-0.054 0.401-0.617 0.441-0.727 0.053l-1.558-5.475c-0.178-0.624 0.082-1.291 0.634-1.632z"></path>
</symbol>

<symbol id="twitter" viewBox="0 0 40 32">
    <path d="M39.345 0.684c-1.521 0.907-3.291 1.594-5.176 1.959l-0.104 0.017c-1.531-1.579-3.671-2.559-6.041-2.559-0.008 0-0.016 0-0.024 0h0.001c-0.033-0-0.071-0.001-0.11-0.001-4.488 0-8.134 3.605-8.201 8.077l-0 0.006c0 0.656 0.079 1.294 0.227 1.905l-0.011-0.055c-6.882-0.339-12.955-3.539-17.099-8.428l-0.029-0.035c-0.707 1.164-1.125 2.572-1.125 4.077 0 2.813 1.461 5.284 3.665 6.698l0.032 0.019c-1.385-0.047-2.674-0.416-3.807-1.036l0.045 0.022v0.101c0.037 3.943 2.872 7.213 6.613 7.922l0.051 0.008c-0.657 0.176-1.411 0.277-2.188 0.279h-0.001c-0.004 0-0.009 0-0.013 0-0.549 0-1.086-0.055-1.604-0.161l0.051 0.009c1.14 3.267 4.174 5.578 7.755 5.625l0.006 0c-2.872 2.152-6.496 3.446-10.421 3.446-0.662 0-1.316-0.037-1.959-0.108l0.079 0.007c3.612 2.274 8.005 3.623 12.713 3.623 0.009 0 0.018 0 0.028 0h-0.001c0.149 0.003 0.326 0.005 0.502 0.005 12.726 0 23.052-10.272 23.139-22.977l0-0.008-0.028-1.064c1.64-1.135 3.019-2.514 4.118-4.102l0.035-0.053c-1.389 0.606-3.001 1.052-4.686 1.258l-0.085 0.008c1.708-1.005 2.998-2.565 3.636-4.427l0.017-0.058z"></path>
</symbol>

</defs>
</svg>
