<svg aria-hidden="true" style="position:absolute;width:0;height:0" xmlns="http://www.w3.org/2000/svg" overflow="hidden"><defs><symbol id="support" viewBox="0 0 31 32"><path d="M15.67.566C7.013.566 0 7.579 0 16.236s7.013 15.67 15.67 15.67 15.67-7.013 15.67-15.67S24.327.566 15.67.566zm0 2.239c2.273 0 4.425.577 6.313 1.574L18.59 7.772a8.974 8.974 0 00-2.921-.49 9.056 9.056 0 00-2.921.49L9.355 4.379a13.504 13.504 0 016.313-1.574zM3.813 22.549c-.997-1.889-1.574-4.04-1.574-6.313s.577-4.425 1.574-6.313l3.393 3.393a8.973 8.973 0 00-.49 2.92c0 1.014.175 1.994.49 2.921L3.813 22.55zm11.857 7.118c-2.273 0-4.425-.577-6.313-1.574L12.75 24.7c.927.315 1.906.49 2.921.49a8.964 8.964 0 002.92-.49l3.393 3.393a13.504 13.504 0 01-6.313 1.574zm0-6.716c-3.707 0-6.715-3.008-6.715-6.715s3.008-6.715 6.715-6.715 6.715 3.008 6.715 6.715-3.008 6.715-6.715 6.715zm8.464-3.795c.315-.927.49-1.906.49-2.921s-.175-1.994-.49-2.921l3.393-3.393c.997 1.889 1.574 4.04 1.574 6.313s-.577 4.424-1.574 6.313l-3.393-3.393z"/></symbol><symbol id="code" viewBox="0 0 42 32"><path d="M13.279 26.179c.3-.302.3-.765 0-1.066L4.203 16l9.076-9.114c.3-.302.3-.765 0-1.066l-1.155-1.159a.736.736 0 00-1.062 0L.3 15.467c-.3.302-.3.765 0 1.066l10.762 10.806a.737.737 0 001.062 0l1.155-1.16zM26.927 1.438a.751.751 0 00-.508-.927L24.987.116c-.37-.116-.785.116-.901.51l-8.614 29.937a.752.752 0 00.508.927l1.432.394c.37.117.785-.115.901-.51l8.614-29.936zM42.1 16.533c.3-.302.3-.765 0-1.066L31.338 4.661a.736.736 0 00-1.062 0L29.121 5.82c-.3.302-.3.765 0 1.066L38.197 16l-9.076 9.113c-.3.302-.3.765 0 1.066l1.155 1.16c.3.301.762.301 1.062 0L42.1 16.533z"/></symbol><symbol id="font" viewBox="0 0 34 32"><path d="M14.988 8.978c1.468 3.021 2.729 6.25 3.804 9.417-.393.021-.786.042-1.178.042-2.047 0-4.094-.062-6.14-.083l3.514-9.375zM0 32c1.302 0 2.584-.063 3.886-.292.29-.042.703-.166.992-.166 2.398 0 4.818.416 7.215.416.021-.187.042-.374.042-.562 0-.416 0-.812-.021-1.208-1.178-.166-4.218-.23-4.218-1.834 0-.792 2.088-6.25 2.626-7.458l9.303.042c.33.854 2.998 7.042 2.998 7.791 0 .771-1.096.917-1.654 1.042l-2.709.583a14.269 14.269 0 00-.082 1.626c2.708-.084 5.416-.313 8.125-.313 2.625 0 5.25.334 7.876.334 0-.188.021-.354.021-.542 0-.395-.062-.791-.124-1.187-.972-.375-2.874-.5-3.556-1.042-.29-.229-.578-.854-.723-1.187-1.034-2.125-1.758-4.354-2.688-6.521-1.571-3.667-2.998-7.396-4.548-11.084L18.523.439c-.062-.146-.145-.292-.227-.438H15.65L9.861 15.085 4.962 27.918c-.868 2.25-2.977 1.834-4.92 2.438L0 32.002z"/></symbol></defs></svg>