<svg aria-hidden="true" style="position: absolute; width: 0; height: 0; overflow: hidden;" version="1.1" xmlns="http://www.w3.org/2000/svg" xmlns:xlink="http://www.w3.org/1999/xlink">
<defs>

<symbol id="support" viewBox="0 0 31 32">
<path d="M15.67 0.566c-8.657 0-15.67 7.013-15.67 15.67s7.013 15.67 15.67 15.67 15.67-7.013 15.67-15.67c0-8.657-7.013-15.67-15.67-15.67zM15.67 2.805c2.273 0 4.425 0.577 6.313 1.574l-3.393 3.393c-0.927-0.315-1.889-0.49-2.921-0.49-1.014 0-1.994 0.175-2.921 0.49l-3.393-3.393c1.889-0.997 4.040-1.574 6.313-1.574zM3.813 22.549c-0.997-1.889-1.574-4.040-1.574-6.313s0.577-4.425 1.574-6.313l3.393 3.393c-0.315 0.927-0.49 1.889-0.49 2.92 0 1.014 0.175 1.994 0.49 2.921l-3.393 3.393zM15.67 29.667c-2.273 0-4.425-0.577-6.313-1.574l3.393-3.393c0.927 0.315 1.906 0.49 2.921 0.49 1.032 0 1.994-0.175 2.92-0.49l3.393 3.393c-1.889 0.997-4.040 1.574-6.313 1.574zM15.67 22.951c-3.707 0-6.715-3.008-6.715-6.715s3.008-6.715 6.715-6.715c3.707 0 6.715 3.008 6.715 6.715s-3.008 6.715-6.715 6.715zM24.134 19.156c0.315-0.927 0.49-1.906 0.49-2.921s-0.175-1.994-0.49-2.921l3.393-3.393c0.997 1.889 1.574 4.040 1.574 6.313s-0.577 4.424-1.574 6.313l-3.393-3.393z"></path>
</symbol>

<symbol id="code" viewBox="0 0 42 32">
<path d="M13.279 26.179c0.3-0.302 0.3-0.765 0-1.066l-9.076-9.113 9.076-9.114c0.3-0.302 0.3-0.765 0-1.066l-1.155-1.159c-0.3-0.302-0.762-0.302-1.062 0l-10.762 10.806c-0.3 0.302-0.3 0.765 0 1.066l10.762 10.806c0.301 0.301 0.762 0.301 1.062 0l1.155-1.16zM26.927 1.438c0.115-0.394-0.115-0.812-0.508-0.927l-1.432-0.395c-0.37-0.116-0.785 0.116-0.901 0.51l-8.614 29.937c-0.115 0.394 0.115 0.811 0.508 0.927l1.432 0.394c0.37 0.117 0.785-0.115 0.901-0.51l8.614-29.936zM42.1 16.533c0.3-0.302 0.3-0.765 0-1.066l-10.762-10.806c-0.301-0.302-0.762-0.302-1.062 0l-1.155 1.159c-0.3 0.302-0.3 0.765 0 1.066l9.076 9.114-9.076 9.113c-0.3 0.302-0.3 0.765 0 1.066l1.155 1.16c0.3 0.301 0.762 0.301 1.062 0l10.762-10.806z"></path>
</symbol>

<symbol id="font" viewBox="0 0 34 32">
<path d="M14.988 8.978c1.468 3.021 2.729 6.25 3.804 9.417-0.393 0.021-0.786 0.042-1.178 0.042-2.047 0-4.094-0.062-6.14-0.083l3.514-9.375zM0 32c1.302 0 2.584-0.063 3.886-0.292 0.29-0.042 0.703-0.166 0.992-0.166 2.398 0 4.818 0.416 7.215 0.416 0.021-0.187 0.042-0.374 0.042-0.562 0-0.416 0-0.812-0.021-1.208-1.178-0.166-4.218-0.23-4.218-1.834 0-0.792 2.088-6.25 2.626-7.458l9.303 0.042c0.33 0.854 2.998 7.042 2.998 7.791 0 0.771-1.096 0.917-1.654 1.042l-2.709 0.583c-0.062 0.542-0.082 1.083-0.082 1.626 2.708-0.084 5.416-0.313 8.125-0.313 2.625 0 5.25 0.334 7.876 0.334 0-0.188 0.021-0.354 0.021-0.542 0-0.395-0.062-0.791-0.124-1.187-0.972-0.375-2.874-0.5-3.556-1.042-0.29-0.229-0.578-0.854-0.723-1.187-1.034-2.125-1.758-4.354-2.688-6.521-1.571-3.667-2.998-7.396-4.548-11.084l-4.238-9.999c-0.062-0.146-0.145-0.292-0.227-0.438h-2.646l-5.789 15.084-4.899 12.833c-0.868 2.25-2.977 1.834-4.92 2.438l-0.042 1.646z"></path>
</symbol>

</defs>
</svg>
