<svg xmlns="http://www.w3.org/2000/svg" width="17" height="16"><path fill-rule="evenodd" fill="#FFF" d="M1.585 3.779c0 1.287.445 2.215 1.322 2.76.718.448 1.553.514 1.986.514a3.8 3.8 0 00.248-.007s-.137.864.526 1.719h-.03c-1.15 0-4.9.232-4.9 3.209 0 3.028 3.445 3.182 4.136 3.182h.085c.008 0 .057.002.141.002.444 0 1.59-.054 2.655-.554 1.381-.647 2.081-1.773 2.081-3.346 0-1.52-1.067-2.424-1.846-3.086-.476-.403-.887-.751-.887-1.089 0-.345.3-.604.68-.932.615-.531 1.194-1.286 1.194-2.714 0-1.255-.169-2.097-1.207-2.632.108-.053.491-.093.68-.118C9.012.613 9.835.529 9.835.085v-.086H5.733C5.692 0 1.585.147 1.585 3.779zm6.622 7.762c.078 1.212-.995 2.106-2.606 2.219-1.637.115-2.984-.596-3.063-1.806-.038-.581.227-1.152.745-1.605.526-.459 1.248-.743 2.033-.799a5.12 5.12 0 01.276-.009c1.515 0 2.54.859 2.615 2zM7.136 2.95c.402 1.367-.206 2.796-1.174 3.059-.111.03-.227.046-.343.046-.887 0-1.766-.867-2.092-2.06-.182-.671-.167-1.257.042-1.82.205-.555.573-.93 1.037-1.056.111-.03.227-.045.343-.045 1.071 0 1.76.428 2.187 1.876zm6.911 2.977V3.343h-1.695v2.584H9.676v1.636h2.676v2.584h1.695V7.563h2.677V5.927h-2.677z"/></svg>