<svg xmlns="http://www.w3.org/2000/svg" width="17" height="14"><path fill-rule="evenodd" fill="#FFF" d="M15.969 1.075a6.694 6.694 0 01-2.084.774A3.313 3.313 0 0011.492.841c-1.812 0-3.28 1.429-3.28 3.19 0 .25.029.493.085.726a9.403 9.403 0 01-6.76-3.332 3.105 3.105 0 00-.444 1.603c0 1.107.58 2.083 1.459 2.654a3.342 3.342 0 01-1.485-.4v.04c0 1.545 1.131 2.833 2.63 3.128a3.404 3.404 0 01-1.482.054c.418 1.267 1.629 2.189 3.063 2.216a6.696 6.696 0 01-4.072 1.364c-.265 0-.526-.015-.783-.044a9.475 9.475 0 005.028 1.433c6.032 0 9.331-4.86 9.331-9.075l-.011-.413a6.503 6.503 0 001.639-1.649 6.643 6.643 0 01-1.883.502 3.225 3.225 0 001.442-1.763z"/></svg>