<svg 
 xmlns="http://www.w3.org/2000/svg"
 xmlns:xlink="http://www.w3.org/1999/xlink"
 width="8px" height="14px">
<path fill-rule="evenodd"  fill="rgb(221, 221, 221)"
 d="M-0.000,12.835 C-0.000,12.962 0.055,13.074 0.137,13.158 L0.825,13.859 C0.907,13.944 1.031,14.000 1.141,14.000 C1.251,14.000 1.375,13.944 1.457,13.859 L7.862,7.322 C7.945,7.238 8.000,7.112 8.000,7.000 C8.000,6.887 7.945,6.761 7.862,6.677 L1.457,0.140 C1.375,0.056 1.251,-0.000 1.141,-0.000 C1.031,-0.000 0.907,0.056 0.825,0.140 L0.137,0.841 C0.055,0.926 -0.000,1.052 -0.000,1.164 C-0.000,1.276 0.055,1.402 0.137,1.487 L5.539,7.000 L0.137,12.513 C0.055,12.597 -0.000,12.723 -0.000,12.835 Z"/>
</svg>