<svg 
 xmlns="http://www.w3.org/2000/svg"
 xmlns:xlink="http://www.w3.org/1999/xlink"
 width="8px" height="14px">
<path fill-rule="evenodd"  fill="rgb(221, 221, 221)"
 d="M8.000,1.164 C8.000,1.037 7.945,0.926 7.863,0.841 L7.175,0.140 C7.093,0.056 6.969,-0.000 6.859,-0.000 C6.749,-0.000 6.625,0.056 6.543,0.140 L0.137,6.677 C0.055,6.761 -0.000,6.887 -0.000,7.000 C-0.000,7.112 0.055,7.238 0.137,7.322 L6.543,13.859 C6.625,13.944 6.749,14.000 6.859,14.000 C6.969,14.000 7.093,13.944 7.175,13.859 L7.863,13.158 C7.945,13.074 8.000,12.947 8.000,12.835 C8.000,12.723 7.945,12.597 7.863,12.513 L2.460,7.000 L7.863,1.487 C7.945,1.402 8.000,1.276 8.000,1.164 Z"/>
</svg>